<?xml version="1.0" encoding="utf-8"?>
<svg id="master-artboard" version="1.1" xmlns="http://www.w3.org/2000/svg" x="0px" y="0px" width="210" height="100">
<path d="M 0 0 H 200 V 200 H 0 V 0 Z" fill="#FFFFFF" transform="matrix(0, 0, 0, 0, 0, 0)"/>
<g transform="matrix(0.6, 0, 0, 0.6, -190, -55)">
	<g>
		<path fill="#2F2F2F" d="M658.1,180c-1.4,0-2.6-0.9-3-2.2c-1.7-5.7-5.5-10.6-10.7-13.6c-13.7-7.7-37.3-18.9-59.3-18.9h-3.5&#10;&#9;&#9;&#9;c-10.8,0-21.1-4.5-28.5-12.5l-14.2-12.4c-6.6-5.5-17-13.4-34.1-13.4H392c-9.7,0-17,6.3-23.3,13.7c-10.4,12.1-20.7,32.1-20.7,32.1&#10;&#9;&#9;&#9;s-11.6,10.3-14.7,22.7c-0.6,2.5-2.9,4.3-5.5,4.3h-2.4c-2.5,0-4.4,2-4.4,4.4v11.7c0,4.1,3.3,7.4,7.4,7.4c2.1,0,3.9,0.8,5.2,2.2&#10;&#9;&#9;&#9;c1.3,1.3,2.2,3.2,2.2,5.2c0,0.2,0,0.3,0,0.5c0,2.5,1.5,4.7,4.1,4.7h11.3c0,0,3.2-36.2,38.1-36.2s38.6,36.2,38.6,36.2h84.2&#10;&#9;&#9;&#9;c0,0,3.2-36.2,38.1-36.2c34.8,0,38.6,36.2,38.6,36.2h50.6c6.1,0,11.5-3.8,13.5-9.5c0.2-0.4,0.3-0.9,0.5-1.4c0.4-1.3,1.6-2.2,3-2.2&#10;&#9;&#9;&#9;h1.7c1.7,0,3.2-1.4,3.2-3.2v-16.5C661.2,181.4,659.8,180,658.1,180z M371.2,147.4c0,0,7.9-12.1,15.7-21c4.6-5.3,11.4-8.2,18.4-8.2&#10;&#9;&#9;&#9;h42.4v23.3h11.7v-23.3h44.1c9.3,0,18.4,2.8,25.7,8.6c0.5,0.4,1,0.8,1.5,1.3c11.6,10,21.6,19.4,21.6,19.4H371.2z" style="fill: rgb(128, 128, 128);"/>
	</g>
	<g>
		<g>
			<g>
				<path fill="#2F2F2F" d="M389.2,246.7c-17,0-30.8-13.8-30.8-30.8c0-17,13.8-30.8,30.8-30.8c17,0,30.8,13.8,30.8,30.8&#10;&#9;&#9;&#9;&#9;&#9;C420,232.9,406.2,246.7,389.2,246.7z M389.2,192.7c-12.8,0-23.2,10.4-23.2,23.2s10.4,23.2,23.2,23.2c12.8,0,23.2-10.4,23.2-23.2&#10;&#9;&#9;&#9;&#9;&#9;S402,192.7,389.2,192.7z" style="fill: rgb(128, 128, 128);"/>
			</g>
			<g>
				<path fill="#2F2F2F" d="M550.5,246.7c-17,0-30.8-13.8-30.8-30.8c0-17,13.8-30.8,30.8-30.8c17,0,30.8,13.8,30.8,30.8&#10;&#9;&#9;&#9;&#9;&#9;C581.3,232.9,567.5,246.7,550.5,246.7z M550.5,192.7c-12.8,0-23.2,10.4-23.2,23.2s10.4,23.2,23.2,23.2&#10;&#9;&#9;&#9;&#9;&#9;c12.8,0,23.2-10.4,23.2-23.2S563.2,192.7,550.5,192.7z" style="fill: rgb(128, 128, 128);"/>
			</g>
			<g>
				<path fill="#2F2F2F" d="M389.2,236.9c-11.6,0-21-9.4-21-21c0-11.6,9.4-21,21-21c11.6,0,21,9.4,21,21&#10;&#9;&#9;&#9;&#9;&#9;C410.2,227.4,400.8,236.9,389.2,236.9z M389.2,198.7c-9.5,0-17.2,7.7-17.2,17.2c0,9.5,7.7,17.2,17.2,17.2&#10;&#9;&#9;&#9;&#9;&#9;c9.5,0,17.2-7.7,17.2-17.2C406.4,206.4,398.7,198.7,389.2,198.7z" style="fill: rgb(128,128,128);"/>
			</g>
			<g>
				<path fill="#2F2F2F" d="M389.2,222.7c-3.8,0-6.9-3.1-6.9-6.9s3.1-6.9,6.9-6.9c3.8,0,6.9,3.1,6.9,6.9S393,222.7,389.2,222.7z&#10;&#9;&#9;&#9;&#9;&#9; M389.2,212.8c-1.7,0-3,1.4-3,3c0,1.7,1.4,3,3,3c1.7,0,3-1.4,3-3C392.2,214.2,390.9,212.8,389.2,212.8z" style="fill: rgb(128,128,128);"/>
			</g>
			<g>
				<path fill="#2F2F2F" d="M389.2,212.8c-3.8,0-6.9-3.1-6.9-6.9c0-3.8,3.1-6.9,6.9-6.9c3.8,0,6.9,3.1,6.9,6.9&#10;&#9;&#9;&#9;&#9;&#9;C396.1,209.7,393,212.8,389.2,212.8z M389.2,202.9c-1.7,0-3,1.4-3,3c0,1.7,1.4,3,3,3c1.7,0,3-1.4,3-3&#10;&#9;&#9;&#9;&#9;&#9;C392.2,204.3,390.9,202.9,389.2,202.9z" style="fill: rgb(128,128,128);"/>
			</g>
			<g>
				<path fill="#2F2F2F" d="M389.2,232.7c-3.8,0-6.9-3.1-6.9-6.9s3.1-6.9,6.9-6.9c3.8,0,6.9,3.1,6.9,6.9S393,232.7,389.2,232.7z&#10;&#9;&#9;&#9;&#9;&#9; M389.2,222.7c-1.7,0-3,1.4-3,3c0,1.7,1.4,3,3,3c1.7,0,3-1.4,3-3C392.2,224.1,390.9,222.7,389.2,222.7z" style="fill: rgb(128,128,128);"/>
			</g>
			<g>
				<path fill="#2F2F2F" d="M396.2,215.7c-1.8,0-3.6-0.7-4.9-2c-1.3-1.3-2-3-2-4.9c0-1.8,0.7-3.6,2-4.9c2.6-2.6,7.1-2.6,9.7,0&#10;&#9;&#9;&#9;&#9;&#9;c1.3,1.3,2,3,2,4.9c0,1.8-0.7,3.6-2,4.9C399.8,215,398,215.7,396.2,215.7z M396.2,205.8c-0.8,0-1.6,0.3-2.2,0.9&#10;&#9;&#9;&#9;&#9;&#9;c-0.6,0.6-0.9,1.3-0.9,2.2c0,0.8,0.3,1.6,0.9,2.2c1.2,1.2,3.2,1.2,4.3,0c0.6-0.6,0.9-1.3,0.9-2.2c0-0.8-0.3-1.6-0.9-2.2&#10;&#9;&#9;&#9;&#9;&#9;S397,205.8,396.2,205.8z" style="fill: rgb(128,128,128);"/>
			</g>
			<g>
				<path fill="#2F2F2F" d="M382.2,229.8c-1.8,0-3.6-0.7-4.9-2c-2.7-2.7-2.7-7.1,0-9.7c2.6-2.6,7.1-2.6,9.7,0c2.7,2.7,2.7,7.1,0,9.7&#10;&#9;&#9;&#9;&#9;&#9;C385.7,229.1,384,229.8,382.2,229.8z M382.2,219.8c-0.8,0-1.6,0.3-2.2,0.9c-1.2,1.2-1.2,3.1,0,4.3c1.1,1.2,3.2,1.2,4.3,0&#10;&#9;&#9;&#9;&#9;&#9;c1.2-1.2,1.2-3.1,0-4.3C383.7,220.2,383,219.8,382.2,219.8z" style="fill: rgb(128,128,128);"/>
			</g>
			<g>
				<path fill="#2F2F2F" d="M399.1,222.7c-3.8,0-6.9-3.1-6.9-6.9s3.1-6.9,6.9-6.9s6.9,3.1,6.9,6.9S402.9,222.7,399.1,222.7z&#10;&#9;&#9;&#9;&#9;&#9; M399.1,212.8c-1.7,0-3,1.4-3,3s1.4,3,3,3s3-1.4,3-3S400.8,212.8,399.1,212.8z" style="fill: rgb(128,128,128);"/>
			</g>
			<g>
				<path fill="#2F2F2F" d="M379.3,222.7c-3.8,0-6.9-3.1-6.9-6.9s3.1-6.9,6.9-6.9c3.8,0,6.9,3.1,6.9,6.9S383.1,222.7,379.3,222.7z&#10;&#9;&#9;&#9;&#9;&#9; M379.3,212.8c-1.7,0-3,1.4-3,3s1.4,3,3,3c1.7,0,3-1.4,3-3S380.9,212.8,379.3,212.8z" style="fill: rgb(128,128,128);"/>
			</g>
			<g>
				<path fill="#2F2F2F" d="M396.2,229.8c-1.8,0-3.6-0.7-4.9-2c-1.3-1.3-2-3-2-4.9c0-1.8,0.7-3.6,2-4.9c2.6-2.6,7.1-2.6,9.7,0&#10;&#9;&#9;&#9;&#9;&#9;c2.7,2.7,2.7,7.1,0,9.7C399.8,229.1,398,229.8,396.2,229.8z M396.2,219.8c-0.8,0-1.6,0.3-2.2,0.9c-0.6,0.6-0.9,1.3-0.9,2.2&#10;&#9;&#9;&#9;&#9;&#9;s0.3,1.6,0.9,2.2c1.2,1.2,3.2,1.2,4.3,0c1.2-1.2,1.2-3.1,0-4.3C397.8,220.2,397,219.8,396.2,219.8z" style="fill: rgb(128,128,128);"/>
			</g>
			<g>
				<path fill="#2F2F2F" d="M382.2,215.7c-1.8,0-3.6-0.7-4.9-2c-1.3-1.3-2-3-2-4.9c0-1.8,0.7-3.6,2-4.9c2.6-2.6,7.1-2.6,9.7,0&#10;&#9;&#9;&#9;&#9;&#9;c1.3,1.3,2,3,2,4.9c0,1.8-0.7,3.6-2,4.9C385.7,215,384,215.7,382.2,215.7z M382.2,205.8c-0.8,0-1.6,0.3-2.2,0.9&#10;&#9;&#9;&#9;&#9;&#9;s-0.9,1.3-0.9,2.2c0,0.8,0.3,1.6,0.9,2.2c1.2,1.2,3.2,1.2,4.3,0c0.6-0.6,0.9-1.3,0.9-2.2c0-0.8-0.3-1.6-0.9-2.2&#10;&#9;&#9;&#9;&#9;&#9;S383,205.8,382.2,205.8z" style="fill: rgb(128,128,128);"/>
			</g>
			<g>
				<path fill="#2F2F2F" d="M550.5,236.9c-11.6,0-21-9.4-21-21c0-11.6,9.4-21,21-21s21,9.4,21,21C571.5,227.4,562,236.9,550.5,236.9&#10;&#9;&#9;&#9;&#9;&#9;z M550.5,198.7c-9.5,0-17.2,7.7-17.2,17.2c0,9.5,7.7,17.2,17.2,17.2s17.2-7.7,17.2-17.2C567.6,206.4,559.9,198.7,550.5,198.7z" style="fill: rgb(128,128,128);"/>
			</g>
			<g>
				<path fill="#2F2F2F" d="M550.5,222.7c-3.8,0-6.9-3.1-6.9-6.9s3.1-6.9,6.9-6.9c3.8,0,6.9,3.1,6.9,6.9S554.2,222.7,550.5,222.7z&#10;&#9;&#9;&#9;&#9;&#9; M550.5,212.8c-1.7,0-3,1.4-3,3c0,1.7,1.4,3,3,3c1.7,0,3-1.4,3-3C553.5,214.2,552.1,212.8,550.5,212.8z" style="fill: rgb(128,128,128);"/>
			</g>
			<g>
				<path fill="#2F2F2F" d="M550.5,212.8c-3.8,0-6.9-3.1-6.9-6.9c0-3.8,3.1-6.9,6.9-6.9c3.8,0,6.9,3.1,6.9,6.9&#10;&#9;&#9;&#9;&#9;&#9;C557.3,209.7,554.2,212.8,550.5,212.8z M550.5,202.9c-1.7,0-3,1.4-3,3c0,1.7,1.4,3,3,3c1.7,0,3-1.4,3-3&#10;&#9;&#9;&#9;&#9;&#9;C553.5,204.3,552.1,202.9,550.5,202.9z" style="fill: rgb(128,128,128);"/>
			</g>
			<g>
				<path fill="#2F2F2F" d="M550.5,232.7c-3.8,0-6.9-3.1-6.9-6.9s3.1-6.9,6.9-6.9c3.8,0,6.9,3.1,6.9,6.9S554.2,232.7,550.5,232.7z&#10;&#9;&#9;&#9;&#9;&#9; M550.5,222.7c-1.7,0-3,1.4-3,3c0,1.7,1.4,3,3,3c1.7,0,3-1.4,3-3C553.5,224.1,552.1,222.7,550.5,222.7z" style="fill: rgb(128,128,128);"/>
			</g>
			<g>
				<path fill="#2F2F2F" d="M557.5,215.7c-1.8,0-3.6-0.7-4.9-2c-1.3-1.3-2-3-2-4.9c0-1.8,0.7-3.6,2-4.9c2.6-2.6,7.1-2.6,9.7,0&#10;&#9;&#9;&#9;&#9;&#9;c1.3,1.3,2,3,2,4.9c0,1.8-0.7,3.6-2,4.9C561,215,559.3,215.7,557.5,215.7z M557.5,205.8c-0.8,0-1.6,0.3-2.2,0.9&#10;&#9;&#9;&#9;&#9;&#9;c-0.6,0.6-0.9,1.3-0.9,2.2c0,0.8,0.3,1.6,0.9,2.2c1.2,1.2,3.2,1.2,4.3,0c0.6-0.6,0.9-1.3,0.9-2.2c0-0.8-0.3-1.6-0.9-2.2&#10;&#9;&#9;&#9;&#9;&#9;C559.1,206.1,558.3,205.8,557.5,205.8z" style="fill: rgb(128,128,128);"/>
			</g>
			<g>
				<path fill="#2F2F2F" d="M543.4,229.8c-1.8,0-3.6-0.7-4.9-2c-2.7-2.7-2.7-7.1,0-9.7c2.6-2.6,7.1-2.6,9.7,0c2.7,2.7,2.7,7.1,0,9.7&#10;&#9;&#9;&#9;&#9;&#9;C547,229.1,545.3,229.8,543.4,229.8z M543.4,219.8c-0.8,0-1.6,0.3-2.2,0.9c-1.2,1.2-1.2,3.1,0,4.3c1.1,1.2,3.2,1.2,4.3,0&#10;&#9;&#9;&#9;&#9;&#9;c1.2-1.2,1.2-3.1,0-4.3C545,220.2,544.2,219.8,543.4,219.8z" style="fill: rgb(128,128,128);"/>
			</g>
			<g>
				<path fill="#2F2F2F" d="M560.4,222.7c-3.8,0-6.9-3.1-6.9-6.9s3.1-6.9,6.9-6.9c3.8,0,6.9,3.1,6.9,6.9S564.2,222.7,560.4,222.7z&#10;&#9;&#9;&#9;&#9;&#9; M560.4,212.8c-1.7,0-3,1.4-3,3s1.4,3,3,3c1.7,0,3-1.4,3-3S562.1,212.8,560.4,212.8z" style="fill: rgb(128,128,128);"/>
			</g>
			<g>
				<path fill="#2F2F2F" d="M540.5,222.7c-3.8,0-6.9-3.1-6.9-6.9s3.1-6.9,6.9-6.9c3.8,0,6.9,3.1,6.9,6.9S544.3,222.7,540.5,222.7z&#10;&#9;&#9;&#9;&#9;&#9; M540.5,212.8c-1.7,0-3,1.4-3,3s1.4,3,3,3c1.7,0,3-1.4,3-3S542.2,212.8,540.5,212.8z" style="fill: rgb(128,128,128);"/>
			</g>
			<g>
				<path fill="#2F2F2F" d="M557.5,229.8c-1.8,0-3.6-0.7-4.9-2c-1.3-1.3-2-3-2-4.9c0-1.8,0.7-3.6,2-4.9c2.6-2.6,7.1-2.6,9.7,0&#10;&#9;&#9;&#9;&#9;&#9;c2.7,2.7,2.7,7.1,0,9.7C561,229.1,559.3,229.8,557.5,229.8z M557.5,219.8c-0.8,0-1.6,0.3-2.2,0.9c-0.6,0.6-0.9,1.3-0.9,2.2&#10;&#9;&#9;&#9;&#9;&#9;s0.3,1.6,0.9,2.2c1.2,1.2,3.2,1.2,4.3,0c1.2-1.2,1.2-3.1,0-4.3C559.1,220.2,558.3,219.8,557.5,219.8z" style="fill: rgb(128,128,128);"/>
			</g>
			<g>
				<path fill="#2F2F2F" d="M543.4,215.7c-1.8,0-3.6-0.7-4.9-2c-1.3-1.3-2-3-2-4.9c0-1.8,0.7-3.6,2-4.9c2.6-2.6,7.1-2.6,9.7,0&#10;&#9;&#9;&#9;&#9;&#9;c1.3,1.3,2,3,2,4.9c0,1.8-0.7,3.6-2,4.9C547,215,545.3,215.7,543.4,215.7z M543.4,205.8c-0.8,0-1.6,0.3-2.2,0.9&#10;&#9;&#9;&#9;&#9;&#9;c-0.6,0.6-0.9,1.3-0.9,2.2c0,0.8,0.3,1.6,0.9,2.2c1.2,1.2,3.2,1.2,4.3,0c0.6-0.6,0.9-1.3,0.9-2.2c0-0.8-0.3-1.6-0.9-2.2&#10;&#9;&#9;&#9;&#9;&#9;C545,206.1,544.2,205.8,543.4,205.8z" style="fill: rgb(128,128,128);"/>
			</g>
		</g>
	</g>
</g>
</svg>
