<?xml version="1.0" encoding="UTF-8"?>
<svg viewBox="0 0 793.7 400" xmlns="http://www.w3.org/2000/svg">
 <g fill="#fff">
  <path d="m160.92 185.87c-32.721 0-59.334 26.613-59.334 59.335v454.96c0 32.661 26.613 59.274 59.334 59.274h454.96c32.722 0 59.335-26.613 59.335-59.274v-454.96c0-32.722-26.613-59.335-59.335-59.335h-454.96z"/>
  <path d="m615.88 771.53c39.436 0 71.492-31.935 71.492-71.37v-454.96c0-39.496-32.056-71.432-71.492-71.432h-454.96c-39.435 0-71.431 31.936-71.431 71.432v454.96c0 39.435 31.996 71.37 71.431 71.37h454.96z"/>
 </g>
 <path d="m125.48 578.1c0-58.79 47.722-106.33 106.33-106.33 58.85 0 106.51 47.54 106.51 106.33 0 58.85-47.661 106.45-106.51 106.45-58.608 0-106.33-47.6-106.33-106.45m106.33 86.794c47.903 0 86.794-38.83 86.794-86.794 0-47.903-38.891-86.733-86.794-86.733-47.782 0-86.612 38.83-86.612 86.733 0 47.963 38.83 86.794 86.612 86.794"/>
 <path d="m438.6 579.19c0-58.85 47.722-106.39 106.51-106.39 58.669 0 106.39 47.54 106.39 106.39 0 58.79-47.722 106.39-106.39 106.39-58.79 0-106.51-47.6-106.51-106.39m106.51 86.733c47.782 0 86.673-38.83 86.673-86.733s-38.891-86.794-86.673-86.794c-47.903 0-86.794 38.891-86.794 86.794s38.891 86.733 86.794 86.733"/>
 <path d="m437.9 319.54c22.076 0 40.04-17.843 40.04-39.98 0-22.076-17.964-40.04-40.04-40.04s-40.04 17.964-40.04 40.04c0 22.137 17.964 39.98 40.04 39.98"/>
 <path d="m440.54 416.61c-5.746 0.12097-12.037-2.782-16.633-10.04l-26.008-40.645-53.589 53.104 49.718 26.19c20.443 9.798 17.358 27.761 17.358 27.761v112.56c0 12.762-10.282 23.166-23.044 23.166s-23.044-10.404-23.044-23.166v-90.12l-86.189-47.903c-10.282-5.746-17.298-16.754-17.298-29.274 0-8.589 3.205-16.512 8.649-22.44l84.556-84.737c10.524-11.855 25.161-9.98 25.161-9.98 17.722 0 27.097 15.484 27.097 15.484l43.911 68.83 66.773-0.121c23.952 0 23.952 31.331 0 31.331h-77.418z"/>
</svg>
